<svg id="Layer_1" data-name="Layer 1" xmlns="http://www.w3.org/2000/svg" viewBox="0 0 317.35 102.88"><defs><style>.cls-1,.cls-2{fill:#fff;}.cls-1{stroke:#fff;stroke-miterlimit:10;stroke-width:2.01px;}</style></defs><title>logo-white</title><path class="cls-1" d="M170.1,53.23h0a22.37,22.37,0,0,1-31.63,0h0a19.35,19.35,0,0,1,0-27.37l15.81-15.81,15.81,15.81A19.34,19.34,0,0,1,170.1,53.23Z" transform="translate(-6.78 -8.63)"/><polyline class="cls-1" points="161.51 46.4 147.51 32.39 133.5 46.4"/><polyline class="cls-1" points="165.96 41.95 147.51 23.5 129.05 41.95"/><polyline class="cls-1" points="168.4 35.58 147.51 14.69 126.6 35.59"/><line class="cls-1" x1="147.51" y1="1.41" x2="147.51" y2="14.53"/><line class="cls-1" x1="147.51" y1="32.39" x2="147.51" y2="50.58"/><path class="cls-1" d="M138.47,66.9h0a22.37,22.37,0,0,1,31.63,0h0a19.35,19.35,0,0,1,0,27.37l-15.81,15.81L138.48,94.27A19.34,19.34,0,0,1,138.47,66.9Z" transform="translate(-6.78 -8.63)"/><polyline class="cls-1" points="133.5 56.47 147.51 70.48 161.51 56.47"/><polyline class="cls-1" points="129.05 60.91 147.51 79.37 165.96 60.91"/><polyline class="cls-1" points="126.61 67.29 147.51 88.18 168.41 67.28"/><line class="cls-1" x1="147.51" y1="101.45" x2="147.51" y2="88.34"/><line class="cls-1" x1="147.51" y1="70.48" x2="147.51" y2="52.28"/><path class="cls-1" d="M161.12,75.88h0a22.37,22.37,0,0,1,0-31.63h0a19.35,19.35,0,0,1,27.37,0L204.3,60.06,188.49,75.87A19.34,19.34,0,0,1,161.12,75.88Z" transform="translate(-6.78 -8.63)"/><polyline class="cls-1" points="152.54 65.44 166.55 51.43 152.54 37.43"/><polyline class="cls-1" points="156.99 69.89 175.44 51.43 156.99 32.98"/><polyline class="cls-1" points="163.36 72.33 184.25 51.43 163.35 30.53"/><line class="cls-1" x1="197.53" y1="51.43" x2="184.41" y2="51.43"/><line class="cls-1" x1="166.55" y1="51.43" x2="148.36" y2="51.43"/><path class="cls-1" d="M147.45,44.25h0a22.37,22.37,0,0,1,0,31.63h0a19.35,19.35,0,0,1-27.37,0L104.27,60.07l15.81-15.81A19.34,19.34,0,0,1,147.45,44.25Z" transform="translate(-6.78 -8.63)"/><polyline class="cls-1" points="142.47 37.43 128.46 51.43 142.47 65.44"/><polyline class="cls-1" points="138.03 32.98 119.57 51.43 138.03 69.89"/><polyline class="cls-1" points="131.66 30.54 110.76 51.43 131.67 72.34"/><line class="cls-1" x1="97.49" y1="51.43" x2="110.6" y2="51.43"/><line class="cls-1" x1="128.46" y1="51.43" x2="146.66" y2="51.43"/><path class="cls-2" d="M8.94,69.13H6.78V47.89H19.59v1.92H8.94v7.35h9.9v1.92H8.94Z" transform="translate(-6.78 -8.63)"/><path class="cls-2" d="M29.7,69.13H27.54V47.89h6.24a13.31,13.31,0,0,1,2.9.3,6.53,6.53,0,0,1,2.31,1,4.65,4.65,0,0,1,1.51,1.75A5.86,5.86,0,0,1,41,53.56a5.22,5.22,0,0,1-3.27,4.92,7.44,7.44,0,0,1-2.16.54l6.21,10.11H39.18L33.3,59.2H29.7v9.93Zm0-11.79h3.75a7.19,7.19,0,0,0,4-1,3.18,3.18,0,0,0,1.41-2.83,3.68,3.68,0,0,0-.39-1.77,3.19,3.19,0,0,0-1.08-1.17A4.92,4.92,0,0,0,35.73,50a10.57,10.57,0,0,0-2.19-.21H29.7Z" transform="translate(-6.78 -8.63)"/><path class="cls-2" d="M51.57,67.21H62.94v1.92H49.41V47.89H62.58v1.92h-11V57.1H61.86V59H51.57Z" transform="translate(-6.78 -8.63)"/><path class="cls-2" d="M73.23,67.21H84.6v1.92H71.07V47.89H84.24v1.92h-11V57.1H83.52V59H73.23Z" transform="translate(-6.78 -8.63)"/><path class="cls-2" d="M233.11,51.31a5.17,5.17,0,0,0-1.77-1.54,5.41,5.41,0,0,0-2.61-.58,5.58,5.58,0,0,0-1.59.24,4.62,4.62,0,0,0-1.47.74,3.85,3.85,0,0,0-1.06,1.24,3.67,3.67,0,0,0-.41,1.77,3.26,3.26,0,0,0,.39,1.68,3.55,3.55,0,0,0,1,1.12,6,6,0,0,0,1.47.77l1.72.6c.74.24,1.48.5,2.23.78a8,8,0,0,1,2,1.09,5.3,5.3,0,0,1,1.47,1.71,5.41,5.41,0,0,1,.57,2.62,5.78,5.78,0,0,1-.61,2.75,5.68,5.68,0,0,1-1.58,1.91,6.57,6.57,0,0,1-2.21,1.11,9,9,0,0,1-2.5.36,9.63,9.63,0,0,1-1.92-.2,9.29,9.29,0,0,1-1.83-.58,7.11,7.11,0,0,1-1.62-1,7.2,7.2,0,0,1-1.32-1.38l1.86-1.38a5.69,5.69,0,0,0,1.93,1.91,5.47,5.47,0,0,0,2.93.76,5.65,5.65,0,0,0,1.65-.25,4.52,4.52,0,0,0,1.51-.78,4.32,4.32,0,0,0,1.11-1.29,4,4,0,0,0,0-3.64,3.78,3.78,0,0,0-1.16-1.23,7.49,7.49,0,0,0-1.65-.83q-.93-.33-1.95-.66t-2.07-.75a7,7,0,0,1-1.83-1.09,5,5,0,0,1-1.3-1.67,5.42,5.42,0,0,1-.5-2.43,5.37,5.37,0,0,1,.62-2.64,5.66,5.66,0,0,1,1.6-1.83,6.72,6.72,0,0,1,2.19-1,8.91,8.91,0,0,1,2.37-.33,8,8,0,0,1,3.69.77,6.43,6.43,0,0,1,2.31,1.81Z" transform="translate(-6.78 -8.63)"/><path class="cls-2" d="M243.64,47.89h6a11.62,11.62,0,0,1,2.94.35,6.46,6.46,0,0,1,2.26,1,4.73,4.73,0,0,1,1.46,1.77,5.72,5.72,0,0,1,.51,2.5,5.55,5.55,0,0,1-.53,2.5,4.85,4.85,0,0,1-1.47,1.77,6.49,6.49,0,0,1-2.28,1.06,11.38,11.38,0,0,1-3,.36h-3.78v9.87h-2.16V47.89Zm2.16,9.54h3.66a6.39,6.39,0,0,0,3.87-1,3.38,3.38,0,0,0,1.32-2.88,3.23,3.23,0,0,0-1.37-2.89,6.84,6.84,0,0,0-3.83-.92h-3.66v7.68Z" transform="translate(-6.78 -8.63)"/><path class="cls-2" d="M267.1,69.13h-2.16V47.89h2.16Z" transform="translate(-6.78 -8.63)"/><path class="cls-2" d="M278.8,69.13h-2.16V47.89h6.24a13.15,13.15,0,0,1,2.89.3,6.53,6.53,0,0,1,2.31,1,4.65,4.65,0,0,1,1.51,1.75,5.83,5.83,0,0,1,.54,2.64,5.22,5.22,0,0,1-3.27,4.92,7.44,7.44,0,0,1-2.16.54l6.21,10.11h-2.64l-5.88-9.93h-3.6v9.93Zm0-11.79h3.75a7.19,7.19,0,0,0,4-1A3.18,3.18,0,0,0,288,53.56a3.68,3.68,0,0,0-.39-1.77,3.19,3.19,0,0,0-1.08-1.17,4.92,4.92,0,0,0-1.68-.66,10.57,10.57,0,0,0-2.19-.21H278.8Z" transform="translate(-6.78 -8.63)"/><path class="cls-2" d="M300.67,69.13h-2.16V47.89h2.16Z" transform="translate(-6.78 -8.63)"/><path class="cls-2" d="M317,69.13h-2.16V49.81h-7.11V47.89h16.38v1.92H317V69.13Z" transform="translate(-6.78 -8.63)"/><path class="cls-2" d="M67.34,88.54V97H64.78V88.54h-3V86.35h8.56v2.19Z" transform="translate(-6.78 -8.63)"/><path class="cls-2" d="M77.19,97l-2.31-4.21H74V97h-2.5V86.35h4a6.67,6.67,0,0,1,1.49.16,4,4,0,0,1,1.3.53,2.82,2.82,0,0,1,.92,1,3.09,3.09,0,0,1,.34,1.53A2.83,2.83,0,0,1,79,91.38a3.19,3.19,0,0,1-1.62,1.05L80.18,97Zm-.1-7.36a1,1,0,0,0-.16-.61,1.19,1.19,0,0,0-.41-.36,1.93,1.93,0,0,0-.56-.17,4.12,4.12,0,0,0-.6,0H74V90.9h1.22a4.87,4.87,0,0,0,.65-.05,1.92,1.92,0,0,0,.6-.19,1.1,1.1,0,0,0,.44-.39A1.05,1.05,0,0,0,77.09,89.61Z" transform="translate(-6.78 -8.63)"/><path class="cls-2" d="M88.65,97l-.82-2.08H83.72L82.94,97H80.15l4.46-10.62H87.1L91.51,97ZM85.8,89.19l-1.35,3.65h2.67Z" transform="translate(-6.78 -8.63)"/><path class="cls-2" d="M97.2,97H94.64l-4-10.62H93.5L96,93.88H96l2.45-7.53h2.83Z" transform="translate(-6.78 -8.63)"/><path class="cls-2" d="M102.17,97V86.35h7.14v2.16h-4.67v2h4.41v2.06h-4.41v2.2h4.94V97Z" transform="translate(-6.78 -8.63)"/><path class="cls-2" d="M111.27,97V86.35h2.58v8.38H118V97Z" transform="translate(-6.78 -8.63)"/><path class="cls-2" d="M199.49,97l-.83-2.08h-4.11L193.77,97H191l4.46-10.62h2.49L202.34,97Zm-2.85-7.78-1.35,3.65H198Z" transform="translate(-6.78 -8.63)"/><path class="cls-2" d="M210.57,97a9.57,9.57,0,0,1-2.27.25,6.63,6.63,0,0,1-2.35-.4,5.39,5.39,0,0,1-1.84-1.14,5.32,5.32,0,0,1-1.21-1.76,5.84,5.84,0,0,1-.44-2.29,5.91,5.91,0,0,1,.44-2.31,5,5,0,0,1,1.22-1.76A5.5,5.5,0,0,1,206,86.46a6.47,6.47,0,0,1,2.26-.39,7.09,7.09,0,0,1,2.34.38,4.75,4.75,0,0,1,1.75,1l-1.62,1.84a2.74,2.74,0,0,0-1-.71,3.29,3.29,0,0,0-1.39-.28,3,3,0,0,0-1.25.25,3.15,3.15,0,0,0-1,.69,3,3,0,0,0-.65,1,3.61,3.61,0,0,0-.23,1.33,4.15,4.15,0,0,0,.21,1.35,3,3,0,0,0,.62,1.06,2.79,2.79,0,0,0,1,.69,3.55,3.55,0,0,0,1.39.25,4.83,4.83,0,0,0,.86-.07,3,3,0,0,0,.75-.22V92.77h-2V90.7h4.38v5.62A7.51,7.51,0,0,1,210.57,97Z" transform="translate(-6.78 -8.63)"/><path class="cls-2" d="M214.49,97V86.35h7.14v2.16H217v2h4.41v2.06H217v2.2h4.93V97Z" transform="translate(-6.78 -8.63)"/><path class="cls-2" d="M230.34,97l-4.28-7h0l.06,7h-2.49V86.35h2.92l4.26,6.93h0l-.06-6.93h2.49V97Z" transform="translate(-6.78 -8.63)"/><path class="cls-2" d="M243.05,96.78a5.62,5.62,0,0,1-2.38.47,6,6,0,0,1-2.27-.41,5.23,5.23,0,0,1-1.81-1.15,5.38,5.38,0,0,1-1.2-1.78,5.83,5.83,0,0,1-.43-2.28,5.91,5.91,0,0,1,.44-2.31,5,5,0,0,1,1.22-1.76,5.34,5.34,0,0,1,1.83-1.12,6.43,6.43,0,0,1,2.26-.39,6.25,6.25,0,0,1,2.21.4,4.24,4.24,0,0,1,1.76,1.16l-1.74,1.74a2.16,2.16,0,0,0-.95-.73,3.13,3.13,0,0,0-1.2-.24,3,3,0,0,0-1.24.25,2.79,2.79,0,0,0-1,.68,3.07,3.07,0,0,0-.63,1,3.62,3.62,0,0,0-.22,1.3A3.73,3.73,0,0,0,238,93a3.22,3.22,0,0,0,.62,1,2.78,2.78,0,0,0,1,.67,3,3,0,0,0,1.21.24A2.7,2.7,0,0,0,243,93.82l1.79,1.68A4.73,4.73,0,0,1,243.05,96.78Z" transform="translate(-6.78 -8.63)"/><path class="cls-2" d="M250.86,92.47V97h-2.57v-4.5l-4-6.12h3.1l2.26,3.93,2.27-3.93h3Z" transform="translate(-6.78 -8.63)"/></svg>