<svg version="1.1" xmlns="http://www.w3.org/2000/svg">
    
<defs>

<!-- Generator: Adobe Illustrator 23.0.1, SVG Export Plug-In . SVG Version: 6.00 Build 0)  -->
<symbol version="1.1"  id="Layer_1" xmlns="http://www.w3.org/2000/svg" xmlns:xlink="http://www.w3.org/1999/xlink" x="0px" y="0px" 
   viewBox="0 170 550 200" style="enable-background:new 0 0 792 612;" xml:space="preserve">

<g style="stroke:#fff; fill:none;">
  <g>
    <path class="st0" d="M393.1,298.7L393.1,298.7c-8.7,8.7-22.9,8.7-31.6,0l0,0c-7.6-7.6-7.6-19.8,0-27.4l15.8-15.8l15.8,15.8
      C400.7,278.9,400.7,291.1,393.1,298.7z"/>
    <polyline class="st0" points="391.3,300.5 377.3,286.5 363.3,300.5     "/>
    <polyline class="st0" points="395.8,296 377.3,277.6 358.9,296     "/>
    <polyline class="st0" points="398.2,289.6 377.3,268.8 356.4,289.7     "/>
    <line class="st0" x1="377.3" y1="255.5" x2="377.3" y2="268.6"/>
    <line class="st0" x1="377.3" y1="286.5" x2="377.3" y2="304.6"/>
  </g>
  <g>
    <path class="st0" d="M361.5,312.3L361.5,312.3c8.7-8.7,22.9-8.7,31.6,0l0,0c7.6,7.6,7.6,19.8,0,27.4l-15.8,15.8l-15.8-15.8
      C353.9,332.1,353.9,319.9,361.5,312.3z"/>
    <polyline class="st0" points="363.3,310.5 377.3,324.5 391.3,310.5     "/>
    <polyline class="st0" points="358.9,315 377.3,333.4 395.8,315     "/>
    <polyline class="st0" points="356.4,321.4 377.3,342.2 398.2,321.4     "/>
    <line class="st0" x1="377.3" y1="355.5" x2="377.3" y2="342.4"/>
    <line class="st0" x1="377.3" y1="324.5" x2="377.3" y2="306.4"/>
  </g>
  <g>
    <path class="st0" d="M384.1,321.3L384.1,321.3c-8.7-8.7-8.7-22.9,0-31.6l0,0c7.6-7.6,19.8-7.6,27.4,0l15.8,15.8l-15.8,15.8
      C404,328.9,391.7,328.9,384.1,321.3z"/>
    <polyline class="st0" points="382.3,319.5 396.4,305.5 382.3,291.5     "/>
    <polyline class="st0" points="386.8,324 405.2,305.5 386.8,287     "/>
    <polyline class="st0" points="393.2,326.4 414,305.5 393.1,284.6     "/>
    <line class="st0" x1="427.3" y1="305.5" x2="414.2" y2="305.5"/>
    <line class="st0" x1="396.4" y1="305.5" x2="378.2" y2="305.5"/>
  </g>
  <g>
    <path class="st0" d="M370.5,289.7L370.5,289.7c8.7,8.7,8.7,22.9,0,31.6l0,0c-7.6,7.6-19.8,7.6-27.4,0l-15.8-15.8l15.8-15.8
      C350.7,282.1,362.9,282.1,370.5,289.7z"/>
    <polyline class="st0" points="372.3,291.5 358.3,305.5 372.3,319.5     "/>
    <polyline class="st0" points="367.8,287 349.4,305.5 367.8,324     "/>
    <polyline class="st0" points="361.5,284.6 340.6,305.5 361.5,326.4     "/>
    <line class="st0" x1="327.3" y1="305.5" x2="340.4" y2="305.5"/>
    <line class="st0" x1="358.3" y1="305.5" x2="376.5" y2="305.5"/>
  </g>
</g>
<g style="stroke:none; fill:#fff;">
  <path d="M232,314.6h-2.2v-21.2h12.8v1.9H232v7.4h9.9v1.9H232V314.6z"/>
  <path d="M252.7,314.6h-2.2v-21.2h6.2c1,0,2,0.1,2.9,0.3c0.9,0.2,1.7,0.5,2.3,1s1.1,1,1.5,1.8c0.4,0.7,0.5,1.6,0.5,2.6
    c0,0.8-0.1,1.5-0.4,2.1s-0.7,1.2-1.1,1.7s-1,0.9-1.7,1.1c-0.7,0.3-1.4,0.5-2.2,0.5l6.2,10.1h-2.6l-5.9-9.9h-3.6L252.7,314.6
    L252.7,314.6z M252.7,302.8h3.8c1.7,0,3.1-0.3,4-1s1.4-1.6,1.4-2.8c0-0.7-0.1-1.3-0.4-1.8c-0.3-0.5-0.6-0.9-1.1-1.2
    c-0.5-0.3-1-0.5-1.7-0.7s-1.4-0.2-2.2-0.2h-3.8V302.8z"/>
  <path d="M274.6,312.6H286v1.9h-13.5v-21.2h13.2v1.9h-11v7.3h10.3v1.9h-10.3V312.6z"/>
  <path d="M296.2,312.6h11.4v1.9h-13.5v-21.2h13.2v1.9h-11v7.3h10.3v1.9h-10.3V312.6z"/>
</g>
<g style="stroke:none; fill:#fff;">
  <path d="M456.1,296.8c-0.5-0.6-1-1.1-1.8-1.5s-1.6-0.6-2.6-0.6c-0.5,0-1,0.1-1.6,0.2s-1,0.4-1.5,0.7s-0.8,0.8-1.1,1.2
    c-0.3,0.5-0.4,1.1-0.4,1.8s0.1,1.2,0.4,1.7s0.6,0.8,1,1.1c0.4,0.3,0.9,0.6,1.5,0.8c0.5,0.2,1.1,0.4,1.7,0.6
    c0.7,0.2,1.5,0.5,2.2,0.8s1.4,0.6,2,1.1s1.1,1,1.5,1.7s0.6,1.6,0.6,2.6c0,1.1-0.2,2-0.6,2.8c-0.4,0.8-0.9,1.4-1.6,1.9
    s-1.4,0.9-2.2,1.1s-1.7,0.4-2.5,0.4c-0.6,0-1.3-0.1-1.9-0.2s-1.2-0.3-1.8-0.6s-1.1-0.6-1.6-1s-0.9-0.9-1.3-1.4l1.9-1.4
    c0.5,0.8,1.1,1.4,1.9,1.9s1.8,0.8,2.9,0.8c0.5,0,1.1-0.1,1.6-0.2s1.1-0.4,1.5-0.8c0.5-0.4,0.8-0.8,1.1-1.3c0.3-0.5,0.4-1.1,0.4-1.8
    c0-0.7-0.1-1.4-0.4-1.9c-0.3-0.5-0.7-0.9-1.2-1.2c-0.5-0.3-1-0.6-1.6-0.8c-0.6-0.2-1.3-0.4-2-0.7c-0.7-0.2-1.4-0.5-2.1-0.8
    s-1.3-0.6-1.8-1.1s-1-1-1.3-1.7s-0.5-1.5-0.5-2.4c0-1,0.2-1.9,0.6-2.6c0.4-0.7,1-1.4,1.6-1.8c0.7-0.5,1.4-0.8,2.2-1
    s1.6-0.3,2.4-0.3c1.4,0,2.7,0.2,3.7,0.8c1,0.5,1.8,1.1,2.3,1.8L456.1,296.8z"/>
  <path d="M466.7,293.3h6c1.1,0,2.1,0.1,2.9,0.4s1.6,0.6,2.3,1s1.1,1.1,1.5,1.8s0.5,1.5,0.5,2.5s-0.2,1.8-0.5,2.5
    c-0.4,0.7-0.8,1.3-1.5,1.8s-1.4,0.8-2.3,1.1c-0.9,0.2-1.9,0.4-3,0.4h-3.8v9.9h-2.2L466.7,293.3L466.7,293.3z M468.8,302.9h3.7
    c1.7,0,3-0.3,3.9-1s1.3-1.6,1.3-2.9c0-1.3-0.5-2.3-1.4-2.9s-2.2-0.9-3.8-0.9h-3.7L468.8,302.9L468.8,302.9z"/>
  <path d="M490.1,314.6H488v-21.2h2.2V314.6z"/>
  <path d="M501.8,314.6h-2.2v-21.2h6.2c1,0,2,0.1,2.9,0.3c0.9,0.2,1.7,0.5,2.3,1s1.1,1,1.5,1.8s0.5,1.6,0.5,2.6
    c0,0.8-0.1,1.5-0.4,2.1c-0.3,0.6-0.7,1.2-1.1,1.7c-0.5,0.5-1,0.9-1.7,1.1c-0.7,0.3-1.4,0.5-2.2,0.5l6.2,10.1h-2.6l-5.9-9.9h-3.6
    L501.8,314.6L501.8,314.6z M501.8,302.8h3.8c1.7,0,3.1-0.3,4-1s1.4-1.6,1.4-2.8c0-0.7-0.1-1.3-0.4-1.8c-0.3-0.5-0.6-0.9-1.1-1.2
    c-0.5-0.3-1-0.5-1.7-0.7s-1.4-0.2-2.2-0.2h-3.8V302.8z"/>
  <path d="M523.7,314.6h-2.2v-21.2h2.2V314.6z"/>
  <path d="M540,314.6h-2.2v-19.3h-7.1v-1.9h16.4v1.9H540L540,314.6L540,314.6z"/>
</g>
<g style="stroke:none; fill:#fff;">
  <path d="M290.4,334v8.4h-2.6V334h-3v-2.2h8.6v2.2H290.4z"/>
  <path d="M300.2,342.4l-2.3-4.2H297v4.2h-2.5v-10.6h4c0.5,0,1,0,1.5,0.2c0.5,0.1,0.9,0.3,1.3,0.5s0.7,0.6,0.9,1s0.3,0.9,0.3,1.5
    c0,0.7-0.2,1.3-0.6,1.8s-0.9,0.8-1.6,1l2.8,4.5H300.2z M300.1,335c0-0.2,0-0.5-0.2-0.6c-0.1-0.1-0.2-0.3-0.4-0.4
    c-0.2-0.1-0.4-0.1-0.6-0.2s-0.4,0-0.6,0H297v2.5h1.2c0.2,0,0.4,0,0.6,0s0.4-0.1,0.6-0.2s0.3-0.2,0.4-0.4
    C300,335.5,300.1,335.3,300.1,335z"/>
  <path d="M311.7,342.4l-0.8-2.1h-4.1l-0.8,2.1h-2.8l4.5-10.6h2.5l4.4,10.6H311.7z M308.8,334.6l-1.4,3.6h2.7L308.8,334.6z"/>
  <path d="M320.2,342.4h-2.6l-4-10.6h2.9l2.5,7.5h0.1l2.5-7.5h2.8L320.2,342.4z"/>
  <path d="M325.2,342.4v-10.6h7.1v2.2h-4.7v2h4.4v2.1h-4.4v2.2h4.9v2.2L325.2,342.4L325.2,342.4z"/>
  <path d="M334.3,342.4v-10.6h2.6v8.4h4.1v2.2H334.3z"/>
</g>
<g style="stroke:none; fill:#fff;">
  <path d="M422.5,342.4l-0.8-2.1h-4.1l-0.8,2.1H414l4.5-10.6h2.5l4.4,10.6H422.5z M419.7,334.6l-1.4,3.6h2.7L419.7,334.6z"/>
  <path d="M433.6,342.4c-0.7,0.2-1.5,0.2-2.3,0.2c-0.9,0-1.6-0.1-2.4-0.4c-0.7-0.3-1.3-0.6-1.8-1.1c-0.5-0.5-0.9-1.1-1.2-1.8
    c-0.3-0.7-0.4-1.5-0.4-2.3c0-0.9,0.1-1.6,0.4-2.3s0.7-1.3,1.2-1.8s1.1-0.9,1.8-1.1c0.7-0.3,1.5-0.4,2.3-0.4c0.8,0,1.6,0.1,2.3,0.4
    s1.3,0.6,1.8,1l-1.6,1.8c-0.2-0.3-0.6-0.5-1-0.7c-0.4-0.2-0.9-0.3-1.4-0.3c-0.5,0-0.9,0.1-1.2,0.2s-0.7,0.4-1,0.7s-0.5,0.6-0.6,1
    c-0.2,0.4-0.2,0.9-0.2,1.3c0,0.5,0.1,0.9,0.2,1.4c0.1,0.4,0.4,0.8,0.6,1.1c0.3,0.3,0.6,0.5,1,0.7c0.4,0.2,0.9,0.2,1.4,0.2
    c0.3,0,0.6,0,0.9-0.1c0.3,0,0.5-0.1,0.8-0.2v-1.9h-2v-2.1h4.4v5.6C434.9,342,434.3,342.3,433.6,342.4z"/>
  <path d="M437.5,342.4v-10.6h7.1v2.2H440v2h4.4v2.1H440v2.2h4.9v2.2L437.5,342.4L437.5,342.4z"/>
  <path d="M453.4,342.4l-4.3-7h0l0.1,7h-2.5v-10.6h2.9l4.3,6.9h0l-0.1-6.9h2.5v10.6H453.4z"/>
  <path d="M466.1,342.2c-0.7,0.3-1.5,0.5-2.4,0.5c-0.8,0-1.6-0.1-2.3-0.4c-0.7-0.3-1.3-0.6-1.8-1.1s-0.9-1.1-1.2-1.8
    s-0.4-1.5-0.4-2.3c0-0.9,0.1-1.6,0.4-2.3s0.7-1.3,1.2-1.8c0.5-0.5,1.1-0.9,1.8-1.1c0.7-0.3,1.5-0.4,2.3-0.4c0.8,0,1.5,0.1,2.2,0.4
    c0.7,0.3,1.3,0.6,1.8,1.2l-1.7,1.7c-0.2-0.3-0.6-0.6-1-0.7s-0.8-0.2-1.2-0.2c-0.5,0-0.9,0.1-1.2,0.2c-0.4,0.2-0.7,0.4-1,0.7
    c-0.3,0.3-0.5,0.6-0.6,1c-0.1,0.4-0.2,0.8-0.2,1.3c0,0.5,0.1,0.9,0.2,1.3s0.4,0.7,0.6,1c0.3,0.3,0.6,0.5,1,0.7
    c0.4,0.2,0.8,0.2,1.2,0.2c0.5,0,1-0.1,1.3-0.3s0.7-0.5,0.9-0.8l1.8,1.7C467.3,341.5,466.8,341.9,466.1,342.2z"/>
  <path d="M473.9,337.9v4.5h-2.6v-4.5l-4-6.1h3.1l2.3,3.9l2.3-3.9h3L473.9,337.9z"/>
</g>
</symbol>
















<symbol version="1.1" id="Notif" xmlns="http://www.w3.org/2000/svg" xmlns:xlink="http://www.w3.org/1999/xlink" x="0px" y="0px"
   viewBox="0 0 792 612" style="enable-background:new 0 0 792 612;" xml:space="preserve">
<style type="text/css">
  .st0{clip-path:url(#SVGID_2_);fill:#B3B3B3;}
  .st1{fill:#B3B3B3;}
</style>
<g>
  <g>
    <defs>
      <path id="SVGID_1_" d="M395.49,300.52v-3.09c0-0.13,0.1-0.23,0.23-0.23h0.37c0.13,0,0.23,0.1,0.23,0.23v3.09
        c0,0.13-0.1,0.23-0.23,0.23h-0.37C395.59,300.75,395.49,300.64,395.49,300.52z"/>
    </defs>
    <use xlink:href="#SVGID_1_"  style="overflow:visible;fill:#B3B3B3;"/>
    <clipPath id="SVGID_2_">
      <use xlink:href="#SVGID_1_"  style="overflow:visible;"/>
    </clipPath>
    <polygon class="st0" points="396.32,297.36 396.21,297.2 396.32,297.2    "/>
    <polygon class="st0" points="396.32,297.43 396.16,297.2 396.21,297.2 396.32,297.36    "/>
    <polygon class="st0" points="396.32,297.5 396.12,297.2 396.16,297.2 396.32,297.43     "/>
    <polygon class="st0" points="396.32,297.56 396.07,297.2 396.12,297.2 396.32,297.5     "/>
    <polygon class="st0" points="396.32,297.63 396.03,297.2 396.07,297.2 396.32,297.56    "/>
    <polygon class="st0" points="396.32,297.7 395.98,297.2 396.03,297.2 396.32,297.63     "/>
    <polygon class="st0" points="396.32,297.76 395.94,297.2 395.98,297.2 396.32,297.7     "/>
    <polygon class="st0" points="396.32,297.83 395.9,297.2 395.94,297.2 396.32,297.76     "/>
    <polygon class="st0" points="396.32,297.9 395.85,297.2 395.9,297.2 396.32,297.83    "/>
    <polygon class="st0" points="396.32,297.96 395.81,297.2 395.85,297.2 396.32,297.9     "/>
    <polygon class="st0" points="396.32,298.03 395.76,297.2 395.81,297.2 396.32,297.96    "/>
    <polygon class="st0" points="396.32,298.1 395.72,297.2 395.76,297.2 396.32,298.03     "/>
    <polygon class="st0" points="396.32,298.16 395.67,297.2 395.72,297.2 396.32,298.1     "/>
    <polygon class="st0" points="396.32,298.23 395.63,297.2 395.67,297.2 396.32,298.16    "/>
    <polygon class="st0" points="396.32,298.29 395.58,297.2 395.63,297.2 396.32,298.23    "/>
    <polygon class="st0" points="396.32,298.36 395.54,297.2 395.58,297.2 396.32,298.29    "/>
    <polygon class="st0" points="396.32,298.43 395.49,297.2 395.54,297.2 396.32,298.36    "/>
    <polygon class="st0" points="396.32,298.49 395.49,297.27 395.49,297.2 395.49,297.2 396.32,298.43    "/>
    <polygon class="st0" points="396.32,298.56 395.49,297.33 395.49,297.27 396.32,298.49    "/>
    <polygon class="st0" points="396.32,298.63 395.49,297.4 395.49,297.33 396.32,298.56     "/>
    <polygon class="st0" points="396.32,298.69 395.49,297.47 395.49,297.4 396.32,298.63     "/>
    <polygon class="st0" points="396.32,298.76 395.49,297.53 395.49,297.47 396.32,298.69    "/>
    <polygon class="st0" points="396.32,298.83 395.49,297.6 395.49,297.53 396.32,298.76     "/>
    <polygon class="st0" points="396.32,298.89 395.49,297.66 395.49,297.6 396.32,298.83     "/>
    <polygon class="st0" points="396.32,298.96 395.49,297.73 395.49,297.66 396.32,298.89    "/>
    <polygon class="st0" points="396.32,299.03 395.49,297.8 395.49,297.73 396.32,298.96     "/>
    <polygon class="st0" points="396.32,299.09 395.49,297.86 395.49,297.8 396.32,299.03     "/>
    <polygon class="st0" points="396.32,299.16 395.49,297.93 395.49,297.86 396.32,299.09    "/>
    <polygon class="st0" points="396.32,299.22 395.49,298 395.49,297.93 396.32,299.16     "/>
    <polygon class="st0" points="396.32,299.29 395.49,298.06 395.49,298 396.32,299.22     "/>
    <polygon class="st0" points="396.32,299.36 395.49,298.13 395.49,298.06 396.32,299.29    "/>
    <polygon class="st0" points="396.32,299.42 395.49,298.2 395.49,298.13 396.32,299.36     "/>
    <polygon class="st0" points="396.32,299.49 395.49,298.26 395.49,298.2 396.32,299.42     "/>
    <polygon class="st0" points="396.32,299.56 395.49,298.33 395.49,298.26 396.32,299.49    "/>
    <polygon class="st0" points="396.32,299.62 395.49,298.4 395.49,298.33 396.32,299.56     "/>
    <polygon class="st0" points="396.32,299.69 395.49,298.46 395.49,298.4 396.32,299.62     "/>
    <polygon class="st0" points="396.32,299.76 395.49,298.53 395.49,298.46 396.32,299.69    "/>
    <polygon class="st0" points="396.32,299.82 395.49,298.59 395.49,298.53 396.32,299.76    "/>
    <polygon class="st0" points="396.32,299.89 395.49,298.66 395.49,298.59 396.32,299.82    "/>
    <polygon class="st0" points="396.32,299.96 395.49,298.73 395.49,298.66 396.32,299.89    "/>
    <polygon class="st0" points="396.32,300.02 395.49,298.79 395.49,298.73 396.32,299.96    "/>
    <polygon class="st0" points="396.32,300.09 395.49,298.86 395.49,298.79 396.32,300.02    "/>
    <polygon class="st0" points="396.32,300.16 395.49,298.93 395.49,298.86 396.32,300.09    "/>
    <polygon class="st0" points="396.32,300.22 395.49,298.99 395.49,298.93 396.32,300.16    "/>
    <polygon class="st0" points="396.32,300.29 395.49,299.06 395.49,298.99 396.32,300.22    "/>
    <polygon class="st0" points="396.32,300.35 395.49,299.13 395.49,299.06 396.32,300.29    "/>
    <polygon class="st0" points="396.32,300.42 395.49,299.19 395.49,299.13 396.32,300.35    "/>
    <polygon class="st0" points="396.32,300.49 395.49,299.26 395.49,299.19 396.32,300.42    "/>
    <polygon class="st0" points="396.32,300.55 395.49,299.33 395.49,299.26 396.32,300.49    "/>
    <polygon class="st0" points="396.32,300.62 395.49,299.39 395.49,299.33 396.32,300.55    "/>
    <polygon class="st0" points="396.32,300.69 395.49,299.46 395.49,299.39 396.32,300.62    "/>
    <polygon class="st0" points="396.31,300.75 395.49,299.53 395.49,299.46 396.32,300.69 396.32,300.75    "/>
    <polygon class="st0" points="396.27,300.75 395.49,299.59 395.49,299.53 396.31,300.75    "/>
    <polygon class="st0" points="396.22,300.75 395.49,299.66 395.49,299.59 396.27,300.75    "/>
    <polygon class="st0" points="396.18,300.75 395.49,299.72 395.49,299.66 396.22,300.75    "/>
    <polygon class="st0" points="396.13,300.75 395.49,299.79 395.49,299.72 396.18,300.75    "/>
    <polygon class="st0" points="396.09,300.75 395.49,299.86 395.49,299.79 396.13,300.75    "/>
    <polygon class="st0" points="396.04,300.75 395.49,299.92 395.49,299.86 396.09,300.75    "/>
    <polygon class="st0" points="396,300.75 395.49,299.99 395.49,299.92 396.04,300.75     "/>
    <polygon class="st0" points="395.95,300.75 395.49,300.06 395.49,299.99 396,300.75     "/>
    <polygon class="st0" points="395.91,300.75 395.49,300.12 395.49,300.06 395.95,300.75    "/>
    <polygon class="st0" points="395.86,300.75 395.49,300.19 395.49,300.12 395.91,300.75    "/>
    <polygon class="st0" points="395.82,300.75 395.49,300.26 395.49,300.19 395.86,300.75    "/>
    <polygon class="st0" points="395.77,300.75 395.49,300.32 395.49,300.26 395.82,300.75    "/>
    <polygon class="st0" points="395.73,300.75 395.49,300.39 395.49,300.32 395.77,300.75    "/>
    <polygon class="st0" points="395.68,300.75 395.49,300.46 395.49,300.39 395.73,300.75    "/>
    <polygon class="st0" points="395.64,300.75 395.49,300.52 395.49,300.46 395.68,300.75    "/>
    <polygon class="st0" points="395.59,300.75 395.49,300.59 395.49,300.52 395.64,300.75    "/>
    <polygon class="st0" points="395.49,300.59 395.59,300.75 395.49,300.75    "/>
  </g>
</g>
<g>
  <path class="st1" d="M402.8,315.83H389c-1.25,0-2.27-1.1-2.27-2.45c0-1.28,0.92-2.34,2.08-2.44v-6.1c0-2.53,1.9-4.6,4.23-4.6h5.72
    c2.33,0,4.23,2.06,4.23,4.6v6.1c1.16,0.1,2.08,1.16,2.08,2.44C405.07,314.73,404.06,315.83,402.8,315.83z M389,311.94
    c-0.7,0-1.27,0.65-1.27,1.44c0,0.79,0.57,1.44,1.27,1.44h13.8c0.7,0,1.26-0.65,1.26-1.44c0-0.79-0.57-1.44-1.26-1.44h-0.82v-7.1
    c0-1.98-1.45-3.59-3.22-3.59h-5.72c-1.78,0-3.22,1.61-3.22,3.59v7.1H389z"/>
</g>
<path class="st1" d="M403.43,299.26c-1.92,0-3.48,1.56-3.48,3.48c0,1.92,1.56,3.48,3.48,3.48s3.48-1.56,3.48-3.48
  C406.91,300.82,405.35,299.26,403.43,299.26z M403.97,304c0,0.07,0,0.12-0.01,0.16c0,0.03-0.02,0.07-0.04,0.12
  c-0.02,0.05-0.06,0.08-0.12,0.09c-0.06,0.02-0.13,0.03-0.23,0.03c-0.09,0-0.17-0.01-0.22-0.03c-0.06-0.02-0.1-0.05-0.12-0.09
  c-0.02-0.04-0.04-0.08-0.04-0.12c0-0.04-0.01-0.09-0.01-0.16v-1.61l-0.06,0.05c-0.12,0.09-0.23,0.14-0.31,0.14
  c-0.09,0-0.18-0.05-0.26-0.14c-0.11-0.12-0.16-0.22-0.16-0.31c0-0.08,0.05-0.17,0.16-0.26l0.74-0.67l0.01-0.01
  c0.08-0.08,0.17-0.12,0.27-0.12c0.08,0,0.14,0.01,0.19,0.02c0.05,0.02,0.09,0.03,0.12,0.05c0.03,0.02,0.05,0.05,0.06,0.09
  s0.02,0.08,0.02,0.11c0,0.03,0,0.07,0,0.13V304z"/>
</symbol>






<!--PHONE -->

<!-- Generator: Adobe Illustrator 23.0.1, SVG Export Plug-In . SVG Version: 6.00 Build 0)  -->
<symbol version="1.1" id="Phone" xmlns="http://www.w3.org/2000/svg" xmlns:xlink="http://www.w3.org/1999/xlink" x="0px" y="0px"
   viewBox="300 150 185 300" style="enable-background:new 0 0 792 612;" xml:space="preserve">


<defs>
  <pattern id="pattern1" width="1" height="1">
   <image width="100%" height="250" preserveAspectRatio="xMidYMid slice" xlink:href="logo-white.svg"/>
  </pattern>
 </defs>

   
  
<style type="text/css">
  .st0{fill:#F7FCFE;}
  .st1{fill:#FFFFFF;}
  .st2{opacity:0.39;fill:#747B8D;}
  .st3{fill:#ECF5FC;}
  .st4{fill:url(#pattern1);}
  .st5{opacity:0.44;fill:none;stroke:url(#SVGID_1_);stroke-width:0.5587;stroke-miterlimit:10;}
  .st6{fill:#2E2F32;}
  .st7{fill:#41434A;}
  .st8{fill:url(#SVGID_2_);}
  .st9{fill:#686B76;}
  .st10{fill:none;stroke:#FFFFFF;stroke-width:0.1146;stroke-miterlimit:10;}
  .st11{fill:#5F6371;}
  .st12{fill:#767A89;}
  .st13{opacity:0.15;}
  .st14{fill:url(#SVGID_3_);}
  .st15{fill:#F4F4F4;}
  .st16{opacity:0.34;fill:#FFFFFF;}
  .st17{opacity:0.4;fill:#F5F7FC;}
  .st18{fill:#C4CBD3;}
  .st19{opacity:0.58;}
  .st20{fill:#F6FCFE;}
  .st21{opacity:0.67;fill:#ECF5FC;}
  .st22{font-family:'Lato-Regular';}
  .st23{font-size:3.8091px;}
</style>
<g>
  <g>
    <g>
      <g>

        <path class="st0" style="fill: #F7FCFE;)" d="M453.33,443.08H345.16c-9.27,0-16.79-7.52-16.79-16.79V187.82c0-9.27,7.52-16.79,16.79-16.79h108.16
          c9.27,0,16.79,7.52,16.79,16.79v238.47C470.11,435.56,462.6,443.08,453.33,443.08z"/>
        <path class="st1" style="fill: #F7FCFE;" d="M453.47,171.02H345.38c-9.29,0-16.83,7.53-16.83,16.83v1.57c0-9.29,7.53-16.83,16.83-16.83h108.09
          c9.29,0,16.83,7.53,16.83,16.83v-1.57C470.29,178.55,462.76,171.02,453.47,171.02z"/>
        <path class="st2" style="opacity:0.39;fill:#747B8D;" d="M453.47,443.08H345.38c-9.29,0-16.83-7.53-16.83-16.83v-1.57c0,9.29,7.53,16.83,16.83,16.83h108.09
          c9.29,0,16.83-7.53,16.83-16.83v1.57C470.29,435.55,462.76,443.08,453.47,443.08z"/>
        <g>
          <path class="st3" style="fill:#ECF5FC;" d="M453.01,443.17H345.02c-9.58,0-17.37-7.76-17.37-17.3V187.76c0-9.54,7.79-17.3,17.37-17.3h107.99
            c9.58,0,17.37,7.76,17.37,17.3v238.11C470.38,435.41,462.59,443.17,453.01,443.17z M345.02,171.6
            c-8.95,0-16.23,7.25-16.23,16.16v238.11c0,8.91,7.28,16.16,16.23,16.16h107.99c8.95,0,16.23-7.25,16.23-16.16V187.76
            c0-8.91-7.28-16.16-16.23-16.16H345.02z"/>
        </g>
        <g style="fill:url(https://www.publicdomainpictures.net/pictures/200000/velka/plain-red-background.jpg);">
        <rect x="330.73" y="201.97" class="st4"  width="137.38" height="212.77"/>
      </g>
        <linearGradient id="SVGID_1_" gradientUnits="userSpaceOnUse" x1="330.2235" y1="308.5861" x2="467.9006" y2="308.5861">
          <stop  offset="0.1603" style="stop-color:#BDBEC0"/>
          <stop  offset="0.1834" style="stop-color:#BDBEC0"/>
          <stop  offset="0.8015" style="stop-color:#424143"/>
        </linearGradient>
        <rect x="330.5" y="202.43" class="st5" style="opacity:0.44;fill:none;stroke:url(#SVGID_1_);stroke-width:0.5587;stroke-miterlimit:10;"  width="137.12" height="212.32"/>
        <g>
          <path class="st6" style="fill:#2E2F32;" d="M411.03,189.88h-21.65c-0.42,0-0.76-0.34-0.76-0.76v-1.03c0-0.42,0.34-0.76,0.76-0.76h21.65
            c0.42,0,0.76,0.34,0.76,0.76v1.03C411.79,189.54,411.45,189.88,411.03,189.88z"/>
          <path class="st7" style="fill:#41434A;" d="M411.03,189.88h-21.65c-0.42,0-0.76-0.34-0.76-0.76v-1.03c0-0.42,0.34-0.76,0.76-0.76h21.65
            c0.42,0,0.76,0.34,0.76,0.76v1.03C411.79,189.54,411.45,189.88,411.03,189.88z"/>
          <linearGradient id="SVGID_2_" gradientUnits="userSpaceOnUse" x1="400.0724" y1="179.9713" x2="400.2563" y2="192.1085">
            <stop  offset="0.1985" style="stop-color:#424143"/>
            <stop  offset="0.8166" style="stop-color:#BDBEC0"/>
            <stop  offset="0.8397" style="stop-color:#BDBEC0"/>
          </linearGradient>
          <path class="st8" style="url(#SVGID_2_);" d="M411.03,189.88h-21.65c-0.42,0-0.76-0.34-0.76-0.76v-1.03c0-0.42,0.34-0.76,0.76-0.76h21.65
            c0.42,0,0.76,0.34,0.76,0.76v1.03C411.79,189.54,411.45,189.88,411.03,189.88z"/>
          <path class="st9" style="fill:#686B76;" d="M411.05,187.33h-21.69c-0.41,0-0.74,0.35-0.74,0.78v0.38c0-0.43,0.33-0.78,0.74-0.78h21.69
            c0.41,0,0.74,0.35,0.74,0.78v-0.38C411.79,187.68,411.46,187.33,411.05,187.33z"/>
          <path class="st9" style="fill: #686B76;"  d="M411.05,189.88h-21.69c-0.41,0-0.74-0.35-0.74-0.78v0.38c0,0.43,0.33,0.78,0.74,0.78h21.69
            c0.41,0,0.74-0.35,0.74-0.78v-0.38C411.79,189.53,411.46,189.88,411.05,189.88z"/>
        </g>
        <path class="st10" style="opacity:0.39;fill:none;stroke:#FFFFFF;stroke-width:0.1146; stroke-miterlimit:10;" d="M393.03,185.07"/>
        <g>
          <path class="st11" style="fill: #5F6371;)" d="M414.61,433.18h-27.38c-1.18,0-2.14-0.96-2.14-2.14v-2.11c0-1.18,0.96-2.14,2.14-2.14h27.38
            c1.18,0,2.14,0.96,2.14,2.14v2.11C416.75,432.22,415.79,433.18,414.61,433.18z"/>
          <path class="st12" style="fill: #767A89;)" d="M414.62,433.31h-27.4c-1.25,0-2.26-1.02-2.26-2.28v-2.09c0-1.26,1.01-2.28,2.26-2.28h27.4
            c1.25,0,2.26,1.02,2.26,2.28v2.09C416.88,432.29,415.87,433.31,414.62,433.31z M387.17,426.8c-1.1,0-1.95,1.04-1.95,2.15v2.09
            c0,1.11,0.9,2.01,2,2.01h27.4c1.1,0,2-0.9,2-2.01v-2.09c0-1.11-0.9-2.01-2-2.01L387.17,426.8z"/>
        </g>
        <g class="st13" style="opacity:0.15;" >
          <path class="st6" style="fill:#2E2F32;" d="M362.06,428.51h-4.22l0.45-0.43c0.06-0.06,0.07-0.17,0.01-0.23c-0.06-0.07-0.16-0.07-0.22-0.01l-1,0.84
            l1,0.86c0.03,0.03,0.07,0.04,0.11,0.04c0.04,0,0.08-0.02,0.11-0.05c0.06-0.07,0.06-0.17-0.01-0.23l-0.46-0.46h4.23
            c0.2,0,0.43,0.41,0.43,0.96v1.09c0,0.55-0.23,0.96-0.43,0.96h-7.57c-0.09,0-0.16,0.07-0.16,0.16c0,0.09,0.07,0.16,0.16,0.16
            h7.57c0.42,0,0.74-0.56,0.74-1.28v-1.09C362.81,429.08,362.48,428.51,362.06,428.51z"/>
        </g>
        <g class="st13" style="opacity:0.15;" >
          <g>
            <path class="st6" style="fill:#2E2F32;" d="M445.26,432.32h-3.99v-3.26c0-0.08,0.06-0.15,0.14-0.15c0.08,0,0.14,0.07,0.14,0.15v2.97h3.43v-2.97
              c0-0.08,0.06-0.15,0.14-0.15c0.08,0,0.14,0.07,0.14,0.15V432.32z"/>
          </g>
          <g>
            <path class="st6" style="fill:#2E2F32;" d="M446.91,429.21h-2.43c-0.08,0-0.14-0.07-0.14-0.15s0.06-0.15,0.14-0.15h1.76l-2.98-3.16l-2.97,3.16h1.7
              c0.08,0,0.14,0.07,0.14,0.15s-0.06,0.15-0.14,0.15h-2.37l3.64-3.87L446.91,429.21z"/>
          </g>
        </g>
        <g>
          <g>
            <path class="st1" style="fill:#fff;" d="M423.37,182.2c0-1.61,1.24-2.92,2.78-2.92c1.54,0,2.78,1.31,2.78,2.92c0,1.61-1.24,2.92-2.78,2.92
              C424.62,185.12,423.37,183.82,423.37,182.2z"/>
            
              <radialGradient id="SVGID_3_" cx="589.0194" cy="-27.2273" r="4.2597" fx="588.0217" fy="-31.3685" gradientTransform="matrix(0.9324 0.2026 -0.1929 0.9793 -128.2989 89.5311)" gradientUnits="userSpaceOnUse">
              <stop  offset="0" style="stop-color:#1E2756"/>
              <stop  offset="0.2462" style="stop-color:#1E2351"/>
              <stop  offset="0.5704" style="stop-color:#002B3D"/>
              <stop  offset="0.9925" style="stop-color:#2C2A66"/>
            </radialGradient>
            <path class="st14" style="fill:url(#SVGID_3_);" d="M423.85,181.7c0.26-1.33,1.51-2.19,2.78-1.92c1.27,0.28,2.09,1.58,1.82,2.92
              c-0.26,1.33-1.51,2.19-2.78,1.92C424.41,184.34,423.59,183.04,423.85,181.7z"/>
            <path class="st15" style="fill:#F4F4F4;" d="M425.77,181.09c0,0,0.13,0.74,1.22,0.83c1.09,0.08,1.11-0.39,0.83-0.76c-0.28-0.38-0.85-1.05-1.53-0.92
              C425.62,180.37,425.77,181.09,425.77,181.09z"/>
          </g>
          <path class="st16" style="opacity:0.34;fill:#FFFFFF;" d="M424.81,181.07c0.71-0.89,1.73-1.35,2.91-0.71c-0.41-0.4-0.96-0.63-1.57-0.63
            c-1.29,0-2.35,1.11-2.35,2.47c0,0.9,0.41,1.7,1.1,2.13C424.36,183.65,423.96,182.14,424.81,181.07z"/>
        </g>
        <path class="st17" style="opacity:0.4;fill:#F5F7FC;" d="M414.49,426.8h-27.15c-1.17,0-2.12,0.96-2.12,2.14v0.25c0-1.18,0.95-2.14,2.12-2.14h27.15
          c1.17,0,2.12,0.96,2.12,2.14v-0.25C416.61,427.76,415.66,426.8,414.49,426.8z"/>
      </g>
      <path class="st3" style="fill:#ECF5FC;" d="M327.65,210.5c0,0-3.25,1.22-3.45,2.09c-0.36,1.53-0.29,7.39-0.28,7.71c0.02,1.34,3.74,6.1,3.74,6.1V210.5z"
        />
      <path class="st3" style="fill:#ECF5FC;" d="M327.65,237.79c0,0-3.55,1.55-3.68,2.94c-0.15,1.67-0.01,7.3-0.01,7.64c-0.01,3.51,3.69,5.01,3.69,5.01
        V237.79z"/>
    </g>
    <g>
      <g>
        <rect x="335.59" y="206.97" class="st18" style="fill:#C4CBD3;" width="1.28" height="4.09"/>
        <rect x="337.66" y="208.2" class="st18" style="fill:#C4CBD3;" width="1.13" height="2.86"/>
        <rect x="339.71" y="209.01" class="st18" style="fill:#C4CBD3;" width="0.97" height="2.04"/>
      </g>
    </g>
    <g class="st19" style="opacity:0.58;" >
      <polygon class="st20" style="fill:#F6FCFE;" points="461.88,208.53 461.34,208.53 461.34,207.73 457.62,207.73 457.62,210.21 461.34,210.21 
        461.34,209.32 461.88,209.32       "/>
      <rect x="460.31" y="207.99" class="st3" style="fill:#ECF5FC;" width="0.62" height="1.92"/>
    </g>
  </g>
  <text transform="matrix(1 0 0 1 393.8158 209.6271)" class="st21 st22 st23" style=" opacity:0.67; fill:#ECF5FC; font-size:3.8091px; font-family:'Lato-Regular';">20 : 45</text>
</g>
</symbol>





















<!-- Generator: Adobe Illustrator 23.0.1, SVG Export Plug-In . SVG Version: 6.00 Build 0)  -->
<symbol version="1.1" id="Notifications" xmlns="http://www.w3.org/2000/svg" xmlns:xlink="http://www.w3.org/1999/xlink" x="-0" y="0"
   viewBox="385 290 25 25" style="enable-background:new 0 0 792 612;" xml:space="preserve">
<style type="text/css">
  .st0{clip-path:url(#SVGID_2_);fill:#B3B3B3;}
  .st1{fill:#B3B3B3;}
</style>
<g>
  <g>
    <defs>
      <path id="SVGID_1_" d="M395.49,300.52v-3.09c0-0.13,0.1-0.23,0.23-0.23h0.37c0.13,0,0.23,0.1,0.23,0.23v3.09
        c0,0.13-0.1,0.23-0.23,0.23h-0.37C395.59,300.75,395.49,300.64,395.49,300.52z"/>
    </defs>
    <use xlink:href="#SVGID_1_"  style="overflow:visible;fill:#B3B3B3;"/>
    <clipPath id="SVGID_2_">
      <use xlink:href="#SVGID_1_"  style="overflow:visible;"/>
    </clipPath>
    <polygon class="st0" points="396.32,297.36 396.21,297.2 396.32,297.2    "/>
    <polygon class="st0" points="396.32,297.43 396.16,297.2 396.21,297.2 396.32,297.36    "/>
    <polygon class="st0" points="396.32,297.5 396.12,297.2 396.16,297.2 396.32,297.43     "/>
    <polygon class="st0" points="396.32,297.56 396.07,297.2 396.12,297.2 396.32,297.5     "/>
    <polygon class="st0" points="396.32,297.63 396.03,297.2 396.07,297.2 396.32,297.56    "/>
    <polygon class="st0" points="396.32,297.7 395.98,297.2 396.03,297.2 396.32,297.63     "/>
    <polygon class="st0" points="396.32,297.76 395.94,297.2 395.98,297.2 396.32,297.7     "/>
    <polygon class="st0" points="396.32,297.83 395.9,297.2 395.94,297.2 396.32,297.76     "/>
    <polygon class="st0" points="396.32,297.9 395.85,297.2 395.9,297.2 396.32,297.83    "/>
    <polygon class="st0" points="396.32,297.96 395.81,297.2 395.85,297.2 396.32,297.9     "/>
    <polygon class="st0" points="396.32,298.03 395.76,297.2 395.81,297.2 396.32,297.96    "/>
    <polygon class="st0" points="396.32,298.1 395.72,297.2 395.76,297.2 396.32,298.03     "/>
    <polygon class="st0" points="396.32,298.16 395.67,297.2 395.72,297.2 396.32,298.1     "/>
    <polygon class="st0" points="396.32,298.23 395.63,297.2 395.67,297.2 396.32,298.16    "/>
    <polygon class="st0" points="396.32,298.29 395.58,297.2 395.63,297.2 396.32,298.23    "/>
    <polygon class="st0" points="396.32,298.36 395.54,297.2 395.58,297.2 396.32,298.29    "/>
    <polygon class="st0" points="396.32,298.43 395.49,297.2 395.54,297.2 396.32,298.36    "/>
    <polygon class="st0" points="396.32,298.49 395.49,297.27 395.49,297.2 395.49,297.2 396.32,298.43    "/>
    <polygon class="st0" points="396.32,298.56 395.49,297.33 395.49,297.27 396.32,298.49    "/>
    <polygon class="st0" points="396.32,298.63 395.49,297.4 395.49,297.33 396.32,298.56     "/>
    <polygon class="st0" points="396.32,298.69 395.49,297.47 395.49,297.4 396.32,298.63     "/>
    <polygon class="st0" points="396.32,298.76 395.49,297.53 395.49,297.47 396.32,298.69    "/>
    <polygon class="st0" points="396.32,298.83 395.49,297.6 395.49,297.53 396.32,298.76     "/>
    <polygon class="st0" points="396.32,298.89 395.49,297.66 395.49,297.6 396.32,298.83     "/>
    <polygon class="st0" points="396.32,298.96 395.49,297.73 395.49,297.66 396.32,298.89    "/>
    <polygon class="st0" points="396.32,299.03 395.49,297.8 395.49,297.73 396.32,298.96     "/>
    <polygon class="st0" points="396.32,299.09 395.49,297.86 395.49,297.8 396.32,299.03     "/>
    <polygon class="st0" points="396.32,299.16 395.49,297.93 395.49,297.86 396.32,299.09    "/>
    <polygon class="st0" points="396.32,299.22 395.49,298 395.49,297.93 396.32,299.16     "/>
    <polygon class="st0" points="396.32,299.29 395.49,298.06 395.49,298 396.32,299.22     "/>
    <polygon class="st0" points="396.32,299.36 395.49,298.13 395.49,298.06 396.32,299.29    "/>
    <polygon class="st0" points="396.32,299.42 395.49,298.2 395.49,298.13 396.32,299.36     "/>
    <polygon class="st0" points="396.32,299.49 395.49,298.26 395.49,298.2 396.32,299.42     "/>
    <polygon class="st0" points="396.32,299.56 395.49,298.33 395.49,298.26 396.32,299.49    "/>
    <polygon class="st0" points="396.32,299.62 395.49,298.4 395.49,298.33 396.32,299.56     "/>
    <polygon class="st0" points="396.32,299.69 395.49,298.46 395.49,298.4 396.32,299.62     "/>
    <polygon class="st0" points="396.32,299.76 395.49,298.53 395.49,298.46 396.32,299.69    "/>
    <polygon class="st0" points="396.32,299.82 395.49,298.59 395.49,298.53 396.32,299.76    "/>
    <polygon class="st0" points="396.32,299.89 395.49,298.66 395.49,298.59 396.32,299.82    "/>
    <polygon class="st0" points="396.32,299.96 395.49,298.73 395.49,298.66 396.32,299.89    "/>
    <polygon class="st0" points="396.32,300.02 395.49,298.79 395.49,298.73 396.32,299.96    "/>
    <polygon class="st0" points="396.32,300.09 395.49,298.86 395.49,298.79 396.32,300.02    "/>
    <polygon class="st0" points="396.32,300.16 395.49,298.93 395.49,298.86 396.32,300.09    "/>
    <polygon class="st0" points="396.32,300.22 395.49,298.99 395.49,298.93 396.32,300.16    "/>
    <polygon class="st0" points="396.32,300.29 395.49,299.06 395.49,298.99 396.32,300.22    "/>
    <polygon class="st0" points="396.32,300.35 395.49,299.13 395.49,299.06 396.32,300.29    "/>
    <polygon class="st0" points="396.32,300.42 395.49,299.19 395.49,299.13 396.32,300.35    "/>
    <polygon class="st0" points="396.32,300.49 395.49,299.26 395.49,299.19 396.32,300.42    "/>
    <polygon class="st0" points="396.32,300.55 395.49,299.33 395.49,299.26 396.32,300.49    "/>
    <polygon class="st0" points="396.32,300.62 395.49,299.39 395.49,299.33 396.32,300.55    "/>
    <polygon class="st0" points="396.32,300.69 395.49,299.46 395.49,299.39 396.32,300.62    "/>
    <polygon class="st0" points="396.31,300.75 395.49,299.53 395.49,299.46 396.32,300.69 396.32,300.75    "/>
    <polygon class="st0" points="396.27,300.75 395.49,299.59 395.49,299.53 396.31,300.75    "/>
    <polygon class="st0" points="396.22,300.75 395.49,299.66 395.49,299.59 396.27,300.75    "/>
    <polygon class="st0" points="396.18,300.75 395.49,299.72 395.49,299.66 396.22,300.75    "/>
    <polygon class="st0" points="396.13,300.75 395.49,299.79 395.49,299.72 396.18,300.75    "/>
    <polygon class="st0" points="396.09,300.75 395.49,299.86 395.49,299.79 396.13,300.75    "/>
    <polygon class="st0" points="396.04,300.75 395.49,299.92 395.49,299.86 396.09,300.75    "/>
    <polygon class="st0" points="396,300.75 395.49,299.99 395.49,299.92 396.04,300.75     "/>
    <polygon class="st0" points="395.95,300.75 395.49,300.06 395.49,299.99 396,300.75     "/>
    <polygon class="st0" points="395.91,300.75 395.49,300.12 395.49,300.06 395.95,300.75    "/>
    <polygon class="st0" points="395.86,300.75 395.49,300.19 395.49,300.12 395.91,300.75    "/>
    <polygon class="st0" points="395.82,300.75 395.49,300.26 395.49,300.19 395.86,300.75    "/>
    <polygon class="st0" points="395.77,300.75 395.49,300.32 395.49,300.26 395.82,300.75    "/>
    <polygon class="st0" points="395.73,300.75 395.49,300.39 395.49,300.32 395.77,300.75    "/>
    <polygon class="st0" points="395.68,300.75 395.49,300.46 395.49,300.39 395.73,300.75    "/>
    <polygon class="st0" points="395.64,300.75 395.49,300.52 395.49,300.46 395.68,300.75    "/>
    <polygon class="st0" points="395.59,300.75 395.49,300.59 395.49,300.52 395.64,300.75    "/>
    <polygon class="st0" points="395.49,300.59 395.59,300.75 395.49,300.75    "/>
  </g>
</g>
<g>
  <path class="st1" d="M402.8,315.83H389c-1.25,0-2.27-1.1-2.27-2.45c0-1.28,0.92-2.34,2.08-2.44v-6.1c0-2.53,1.9-4.6,4.23-4.6h5.72
    c2.33,0,4.23,2.06,4.23,4.6v6.1c1.16,0.1,2.08,1.16,2.08,2.44C405.07,314.73,404.06,315.83,402.8,315.83z M389,311.94
    c-0.7,0-1.27,0.65-1.27,1.44c0,0.79,0.57,1.44,1.27,1.44h13.8c0.7,0,1.26-0.65,1.26-1.44c0-0.79-0.57-1.44-1.26-1.44h-0.82v-7.1
    c0-1.98-1.45-3.59-3.22-3.59h-5.72c-1.78,0-3.22,1.61-3.22,3.59v7.1H389z"/>
</g>
<path class="st1" d="M403.43,299.26c-1.92,0-3.48,1.56-3.48,3.48c0,1.92,1.56,3.48,3.48,3.48s3.48-1.56,3.48-3.48
  C406.91,300.82,405.35,299.26,403.43,299.26z M403.97,304c0,0.07,0,0.12-0.01,0.16c0,0.03-0.02,0.07-0.04,0.12
  c-0.02,0.05-0.06,0.08-0.12,0.09c-0.06,0.02-0.13,0.03-0.23,0.03c-0.09,0-0.17-0.01-0.22-0.03c-0.06-0.02-0.1-0.05-0.12-0.09
  c-0.02-0.04-0.04-0.08-0.04-0.12c0-0.04-0.01-0.09-0.01-0.16v-1.61l-0.06,0.05c-0.12,0.09-0.23,0.14-0.31,0.14
  c-0.09,0-0.18-0.05-0.26-0.14c-0.11-0.12-0.16-0.22-0.16-0.31c0-0.08,0.05-0.17,0.16-0.26l0.74-0.67l0.01-0.01
  c0.08-0.08,0.17-0.12,0.27-0.12c0.08,0,0.14,0.01,0.19,0.02c0.05,0.02,0.09,0.03,0.12,0.05c0.03,0.02,0.05,0.05,0.06,0.09
  s0.02,0.08,0.02,0.11c0,0.03,0,0.07,0,0.13V304z"/>
</symbol>


<!-- Generator: Adobe Illustrator 23.0.1, SVG Export Plug-In . SVG Version: 6.00 Build 0)  -->
<symbol version="1.1" id="Awards" xmlns="http://www.w3.org/2000/svg" xmlns:xlink="http://www.w3.org/1999/xlink" x="0px" y="0.1px"
   viewBox="385 290 25 25" style="enable-background:new 0 0 792 612;" xml:space="preserve">
<style type="text/css">
  .st0{fill:#B3B3B3;}
</style>
<g>
  <path class="st0" d="M402.26,298.22h-11.17c-1,0-1.84,0.88-1.84,1.97c0,1.04,0.74,1.89,1.7,1.97v4.93c0,2.04,1.52,3.72,3.41,3.72
    h1.09v2.87h-0.81c-0.28,0-0.5,0.23-0.5,0.48c0,0.28,0.23,0.5,0.5,0.5h3.95c0.28,0,0.5-0.23,0.5-0.5c0-0.26-0.23-0.48-0.5-0.48
    h-0.81v-2.87h1.23c1.87,0,3.41-1.68,3.41-3.72v-4.93c0.94-0.09,1.68-0.94,1.68-1.97C404.1,299.11,403.28,298.22,402.26,298.22z
     M402.26,301.36h-0.66v5.75c0,1.59-1.16,2.91-2.6,2.91h-4.64c-1.44,0-2.6-1.32-2.6-2.91v-5.75h-0.68c-0.55,0-1.02-0.52-1.02-1.16
    c0-0.64,0.47-1.16,1.02-1.16h11.17c0.57,0,1.02,0.52,1.02,1.16C403.28,300.84,402.83,301.36,402.26,301.36z"/>
</g>
</symbol>


<!-- Generator: Adobe Illustrator 23.0.1, SVG Export Plug-In . SVG Version: 6.00 Build 0)  -->
<symbol version="1.1" id="Options"  xmlns="http://www.w3.org/2000/svg" xmlns:xlink="http://www.w3.org/1999/xlink" y="0.2px" x="-0.1px"
   viewBox="385 290 25 25" style="enable-background:new 0 0 792 612;" xml:space="preserve">
<style type="text/css">
  .st0{fill:#B3B3B3;}
</style>
<g>
  <path class="st0" d="M396.41,316.97l-3.74-1l-0.1-0.22c-0.21-0.5-0.56-1.64-0.39-2.43c0-0.01-0.02-0.06-0.07-0.11l-1.74-1.74
    c-0.05-0.05-0.1-0.07-0.11-0.07l0,0c-0.78,0.17-1.93-0.18-2.42-0.39l-0.22-0.1l-1-3.75l0.15-0.19c0.32-0.43,1.14-1.31,1.91-1.55
    c0.01,0,0.04-0.04,0.06-0.11l0.63-2.37c0.02-0.07,0.01-0.12,0-0.13c-0.54-0.59-0.81-1.76-0.88-2.29l-0.03-0.24l2.74-2.74l0.24,0.03
    c0.54,0.07,1.7,0.33,2.3,0.88c0.01,0,0.06,0.01,0.13,0l2.37-0.64c0.07-0.02,0.11-0.05,0.12-0.06c0.24-0.76,1.12-1.58,1.55-1.9
    l0.19-0.15l3.74,1l0.1,0.22c0.21,0.5,0.56,1.64,0.39,2.43c0,0.01,0.02,0.06,0.07,0.11l1.73,1.73c0.05,0.05,0.1,0.07,0.11,0.07l0,0
    c0.78-0.17,1.93,0.18,2.42,0.39l0.22,0.1l1,3.74l-0.15,0.19c-0.32,0.43-1.14,1.31-1.91,1.55c-0.01,0-0.04,0.04-0.06,0.11
    l-0.63,2.37c-0.02,0.07-0.01,0.12,0,0.13c0.54,0.59,0.81,1.76,0.88,2.29l0.03,0.24l-2.74,2.74l-0.24-0.03
    c-0.54-0.07-1.7-0.33-2.3-0.88c-0.01,0-0.06-0.01-0.13,0l-2.37,0.64c-0.07,0.02-0.11,0.05-0.12,0.06c-0.24,0.76-1.12,1.58-1.55,1.9
    L396.41,316.97z M393.41,315.13l2.79,0.75c0.43-0.37,0.9-0.9,1.01-1.26c0.11-0.35,0.41-0.62,0.81-0.73l2.37-0.64
    c0.4-0.11,0.8-0.02,1.07,0.23c0.28,0.25,0.95,0.48,1.51,0.58l2.04-2.04c-0.1-0.56-0.33-1.23-0.58-1.5
    c-0.25-0.27-0.33-0.67-0.23-1.07l0.63-2.37c0.11-0.4,0.38-0.7,0.73-0.81c0.36-0.11,0.89-0.58,1.26-1.01l-0.74-2.78
    c-0.54-0.19-1.23-0.33-1.6-0.25c-0.36,0.08-0.75-0.05-1.04-0.34l-1.74-1.73c-0.29-0.29-0.42-0.68-0.34-1.04
    c0.08-0.37-0.06-1.06-0.25-1.6l-2.78-0.75c-0.43,0.37-0.9,0.9-1.01,1.26c-0.11,0.35-0.41,0.62-0.81,0.73l-2.37,0.64
    c-0.4,0.11-0.8,0.02-1.07-0.23c-0.27-0.25-0.95-0.48-1.51-0.58l-2.04,2.04c0.1,0.56,0.33,1.23,0.58,1.5
    c0.25,0.27,0.33,0.67,0.23,1.07l-0.63,2.37c-0.11,0.4-0.38,0.7-0.73,0.81c-0.36,0.11-0.89,0.58-1.26,1.01l0.74,2.79
    c0.54,0.19,1.23,0.33,1.6,0.25c0.36-0.08,0.74,0.05,1.04,0.34l1.74,1.74c0.29,0.29,0.42,0.68,0.34,1.03
    C393.08,313.9,393.22,314.6,393.41,315.13z M397.26,311.83c-1.47,0-2.85-0.57-3.89-1.61c-1.04-1.04-1.61-2.42-1.61-3.89
    c0-1.47,0.57-2.85,1.61-3.89c2.14-2.14,5.63-2.14,7.78,0l0,0c2.14,2.14,2.14,5.63,0,7.78
    C400.11,311.26,398.73,311.83,397.26,311.83z M397.26,301.84c-1.15,0-2.3,0.44-3.18,1.32c-0.85,0.85-1.32,1.98-1.32,3.18
    c0,1.2,0.47,2.33,1.32,3.18c1.7,1.7,4.66,1.7,6.36,0c1.75-1.75,1.75-4.61,0-6.36C399.56,302.27,398.41,301.84,397.26,301.84z"/>
</g>
</symbol>



</defs>

</svg>




















